<?xml version="1.0" standalone="no"?>
<!DOCTYPE svg PUBLIC "-//W3C//DTD SVG 20010904//EN"
 "http://www.w3.org/TR/2001/REC-SVG-20010904/DTD/svg10.dtd">
<svg version="1.0" xmlns="http://www.w3.org/2000/svg"
 width="1392.000000pt" height="1392.000000pt" viewBox="0 0 1392.000000 1392.000000"
 preserveAspectRatio="xMidYMid meet">
<metadata>
Created by potrace 1.16, written by Peter Selinger 2001-2019
</metadata>
<g transform="translate(0.000000,1392.000000) scale(0.100000,-0.100000)"
fill="#000000" stroke="none">
<path d="M9219 2753 c-15 -2 -32 -15 -39 -29 -7 -13 -19 -24 -26 -24 -7 0 -19
-2 -26 -5 -8 -3 -25 3 -38 15 -13 11 -27 20 -31 20 -12 0 -23 -22 -23 -50 -1
-20 -7 -26 -28 -28 -27 -3 -71 -52 -47 -52 24 0 -2 -14 -34 -18 -125 -16 -132
-15 -146 14 -8 19 -9 30 -2 37 14 14 41 18 41 5 0 -16 32 -42 55 -45 18 -3 24
3 28 24 7 37 -9 56 -35 42 -22 -12 -52 -4 -43 11 3 5 1 10 -4 10 -6 0 -11 6
-11 14 0 16 -38 16 -48 0 -4 -7 -24 -19 -45 -27 -34 -15 -37 -18 -25 -37 7
-11 18 -20 25 -20 23 0 22 -16 -2 -44 -13 -15 -25 -32 -27 -38 -2 -5 -17 -11
-33 -11 -17 -1 -38 -11 -47 -23 -11 -14 -27 -20 -43 -19 -27 3 -55 -17 -55
-41 0 -11 5 -10 22 6 28 26 37 25 32 -2 -2 -13 -1 -17 2 -9 4 8 21 27 38 43
30 27 46 35 46 21 0 -9 -44 -103 -112 -236 -32 -66 -57 -122 -53 -125 9 -10
185 18 255 41 36 11 77 29 92 39 14 10 31 18 37 18 7 0 23 7 37 16 13 9 27 14
30 11 9 -8 -11 -39 -90 -145 -40 -53 -84 -115 -98 -137 -14 -22 -34 -49 -44
-60 -22 -24 -104 -142 -104 -149 0 -6 336 227 363 252 13 11 20 13 29 4 8 -8
4 -31 -16 -89 -40 -111 -42 -123 -21 -123 10 0 34 4 54 9 42 11 142 32 186 38
34 5 188 39 223 49 24 7 31 -10 7 -20 -17 -6 -20 -26 -5 -26 6 0 15 11 21 24
8 16 25 28 53 35 247 66 316 85 411 117 61 19 124 42 140 49 140 62 201 84
219 79 15 -4 17 -3 8 4 -10 7 8 22 70 57 45 26 102 61 126 77 32 22 46 27 56
19 10 -8 16 -7 25 3 10 12 8 14 -11 9 -18 -4 -13 4 22 34 56 48 121 110 96 92
-15 -11 -20 -11 -23 -1 -7 18 -27 15 -56 -8 l-25 -20 -7 27 c-5 21 0 31 25 55
36 32 43 34 60 13 9 -10 9 -15 1 -15 -6 0 -11 -4 -11 -9 0 -13 41 -10 59 3 11
8 15 7 19 -2 3 -10 10 -8 27 8 14 13 21 29 18 39 -4 12 -3 13 5 3 7 -10 19 -2
49 35 48 58 73 95 73 106 0 5 -11 -5 -25 -21 -14 -17 -25 -34 -25 -38 0 -14
-65 -54 -109 -70 -69 -24 -94 4 -45 50 15 13 38 30 53 37 33 17 61 40 61 51 0
4 -26 8 -57 7 -32 0 -71 1 -88 3 -22 2 -30 -2 -33 -16 -3 -16 0 -18 21 -12 15
3 29 1 33 -5 9 -16 -20 -42 -52 -45 -15 -2 -34 -6 -43 -10 -17 -8 -26 -11 -39
-13 -5 0 -18 -10 -30 -21 -12 -12 -22 -16 -22 -10 0 10 -37 -4 -50 -19 -3 -3
-22 -14 -44 -24 -40 -19 -73 -15 -92 11 -11 16 -59 8 -49 -8 3 -5 -7 -12 -22
-15 -15 -3 -53 -13 -84 -21 -35 -9 -73 -12 -103 -8 -40 6 -50 4 -67 -15 -11
-11 -26 -21 -33 -21 -16 0 -28 48 -14 56 5 3 7 12 5 18 -3 7 8 21 24 30 23 14
41 16 84 11 36 -5 60 -3 69 4 7 6 38 20 69 30 42 15 58 17 66 8 8 -11 50 -12
156 -4 11 0 30 -2 42 -6 18 -7 23 -3 33 27 6 19 15 36 20 38 4 2 11 20 15 41
7 35 6 37 -19 37 -14 0 -26 -4 -26 -9 0 -10 -61 -33 -99 -37 -13 -2 -29 -8
-34 -13 -18 -18 -54 -13 -60 9 -4 15 -14 20 -42 20 -28 0 -36 4 -32 14 8 20
-6 23 -111 22 -68 -1 -95 -5 -101 -15 -7 -11 -10 -10 -13 5 -3 12 -7 3 -12
-23 -5 -30 -13 -43 -29 -47 -12 -3 -24 -2 -27 3 -12 19 -48 19 -100 1 -45 -15
-56 -16 -62 -5 -6 10 -17 11 -47 3 -31 -8 -46 -6 -75 7 -33 16 -38 16 -61 1
-27 -18 -33 -35 -12 -37 36 -4 89 -20 110 -35 18 -12 18 -12 -2 -19 -12 -3
-21 -10 -21 -15 0 -30 -75 -11 -85 22 -4 10 -12 18 -18 19 -41 2 -158 19 -191
27 -34 9 -41 8 -60 -13 -12 -13 -35 -25 -51 -27 -20 -2 -31 -9 -33 -22 -3 -16
0 -18 25 -11 15 4 37 9 47 10 11 1 22 7 24 13 5 17 42 -19 42 -43 0 -19 -6
-20 -125 -20 -69 0 -125 4 -125 8 0 5 7 15 15 23 23 23 18 36 -7 20 -19 -12
-25 -12 -35 -1 -9 10 -8 18 6 34 23 26 48 27 56 1 6 -20 6 -20 28 0 11 11 25
20 29 20 5 0 13 11 18 25 5 14 15 25 21 25 27 0 79 33 79 51 0 19 -7 20 -61
12z m322 -261 c0 -11 2 -12 6 -4 2 6 9 10 14 7 5 -3 28 -1 51 6 62 17 158 20
158 4 0 -20 -25 -36 -67 -41 -21 -3 -55 -12 -76 -20 -55 -21 -87 -18 -87 6 0
23 -13 26 -29 6 -13 -15 -71 -26 -176 -32 -82 -4 -111 -8 -143 -18 -20 -7 -23
-5 -20 11 2 10 12 18 23 18 11 0 25 3 30 6 6 3 44 7 85 8 85 2 171 25 196 52
19 21 34 17 35 -9z"/>
<path d="M8362 2728 c-10 -10 -63 -20 -99 -20 -13 0 -25 -8 -28 -18 -3 -10
-19 -22 -35 -25 -17 -4 -30 -12 -30 -19 0 -6 -23 -20 -51 -31 -28 -11 -58 -28
-66 -37 -9 -10 -20 -18 -26 -18 -5 0 -23 -7 -40 -14 -18 -8 -45 -17 -62 -18
l-30 -4 30 -13 c17 -7 44 -19 60 -26 54 -25 260 -75 310 -76 17 -1 68 17 115
40 54 26 73 39 53 35 -26 -4 -33 -2 -33 10 0 10 6 13 17 9 12 -5 15 -2 11 8
-5 12 1 14 23 11 16 -2 29 -10 29 -17 0 -9 19 -7 73 8 39 12 74 22 76 24 7 5
-21 33 -29 28 -4 -2 -32 -7 -61 -10 -30 -4 -60 -8 -67 -11 -8 -2 -20 3 -28 11
-21 21 -45 19 -51 -4 -3 -12 -17 -23 -34 -26 -16 -4 -29 -13 -29 -21 0 -20
-40 -34 -63 -22 -12 6 -16 16 -12 28 7 24 -11 35 -23 14 -6 -11 -27 -17 -76
-19 -37 -1 -73 -8 -79 -14 -14 -14 -37 -14 -37 -1 0 5 3 9 8 9 19 -3 23 2 13
15 -17 20 11 61 49 74 16 6 36 22 46 37 23 35 50 48 108 51 27 1 52 6 55 12 3
5 22 8 41 6 19 -1 38 3 42 9 10 15 10 27 1 26 -5 -1 -10 0 -13 1 -17 6 -51 5
-58 -2z"/>
<path d="M7911 2717 c-6 -6 -11 -16 -11 -23 0 -15 -48 -25 -56 -12 -4 6 -10 6
-17 -1 -6 -6 -20 -11 -31 -11 -19 -1 -20 -1 -3 -11 9 -6 15 -15 11 -20 -4 -6
-11 -5 -21 3 -12 10 -18 9 -28 -6 -8 -10 -18 -15 -23 -12 -5 3 -18 -1 -28 -8
-13 -10 -23 -11 -31 -4 -9 8 -13 7 -13 -3 0 -10 -3 -11 -8 -3 -5 8 -13 4 -24
-11 l-18 -24 38 0 c20 0 73 -9 116 -20 94 -25 116 -26 116 -6 0 8 9 19 20 25
23 12 27 40 6 40 -8 0 -16 -7 -20 -15 -3 -8 -12 -15 -21 -15 -8 0 -15 -4 -15
-9 0 -13 -51 -20 -74 -11 -20 8 -19 9 4 9 17 1 31 11 42 31 12 21 25 30 43 30
17 0 29 7 35 23 5 12 9 18 9 13 1 -14 41 25 41 39 0 18 -25 26 -39 12z"/>
<path d="M11826 2651 c-3 -4 -33 -6 -66 -4 -60 5 -61 4 -71 -26 -11 -31 -29
-42 -29 -18 -1 7 -6 5 -14 -5 -15 -20 -37 -23 -53 -7 -6 6 -21 9 -34 7 -17 -3
-19 -6 -9 -10 25 -9 112 -35 160 -48 25 -6 61 -17 80 -24 19 -7 46 -9 60 -6
56 15 90 19 90 11 0 -5 -9 -11 -20 -14 -11 -3 -20 -9 -20 -14 0 -11 98 -35
111 -27 5 3 9 1 9 -4 0 -10 73 -29 149 -38 47 -6 51 -8 31 -16 -18 -7 -21 -11
-12 -20 9 -9 15 -9 24 0 7 7 26 12 43 12 20 0 26 3 16 9 -9 6 3 11 35 17 60
10 66 11 79 14 6 1 45 2 87 1 42 -1 79 3 82 7 3 6 23 6 48 0 24 -5 55 -12 69
-14 31 -7 103 21 94 36 -4 6 -38 10 -78 9 -88 -1 -117 3 -117 14 0 6 -18 6
-42 2 -24 -4 -49 -7 -55 -8 -7 0 -13 -3 -13 -6 0 -3 -17 -7 -38 -8 -20 -1 -46
-3 -57 -5 -12 -2 -21 3 -23 14 -2 12 8 20 38 28 34 9 41 15 37 30 -4 16 2 21
30 26 24 4 31 9 22 15 -7 4 -19 4 -25 -2 -6 -5 -18 -7 -26 -4 -9 4 -18 -1 -21
-9 -7 -18 -37 -22 -37 -5 0 5 -5 7 -10 4 -6 -4 -7 -11 -4 -17 4 -6 -1 -8 -15
-3 -24 7 -81 -11 -81 -27 0 -17 -28 -38 -49 -38 -12 0 -21 3 -21 8 0 11 57 72
68 72 8 0 22 22 22 35 0 2 -12 5 -27 7 -32 3 -56 -13 -84 -59 -22 -35 -46 -35
-51 0 -3 20 -10 22 -75 25 -56 2 -73 6 -73 17 0 10 -11 15 -35 15 -25 0 -35
-4 -35 -16 0 -11 -6 -14 -22 -8 -33 10 -34 13 -10 30 31 21 29 54 -2 54 -14 0
-27 -4 -30 -9z"/>
<path d="M12760 2397 c0 -5 -33 -8 -79 -6 -53 3 -82 0 -90 -8 -15 -17 -14 -21
10 -34 16 -8 23 -8 29 1 4 7 17 9 33 5 40 -10 24 -22 -25 -19 -101 8 -206 34
-136 34 15 0 29 7 32 16 6 15 -2 16 -70 10 -42 -3 -91 -6 -108 -7 -58 -1 105
-43 288 -74 44 -8 82 -18 85 -22 3 -5 17 -8 31 -7 35 3 172 -15 250 -32 81
-17 526 -73 559 -70 14 1 27 8 29 14 4 13 -58 44 -95 46 -16 0 -37 9 -47 18
-11 10 -27 18 -35 18 -13 -1 -13 -2 2 -11 25 -15 11 -30 -17 -19 -15 5 -27 5
-34 -2 -12 -12 -55 -1 -47 12 3 5 -5 10 -17 12 -13 2 -22 8 -21 14 1 6 -11 9
-28 6 -16 -2 -51 2 -77 9 -26 7 -74 13 -107 13 -51 -1 -63 3 -82 22 -12 14
-34 24 -49 24 -18 0 -25 4 -21 14 3 8 -5 18 -19 25 -15 6 -24 7 -24 1 0 -6 -7
-10 -15 -10 -9 0 -12 -6 -8 -17 5 -13 2 -15 -11 -10 -10 4 -20 7 -23 7 -3 0 0
7 7 15 13 16 14 16 -42 20 -16 1 -28 -2 -28 -8z"/>
</g>
</svg>
